<svg version="1.1" id="Layer_1" xmlns="http://www.w3.org/2000/svg" xmlns:xlink="http://www.w3.org/1999/xlink" x="0px" y="0px" viewBox="0 0 1227.9 188.6" style="enable-background: new 0 0 1227.9 188.6" xml:space="preserve">
<style type="text/css">
            .st001 {
              fill: #1b1642;
            }
            .st011 {
              fill: #f9917a;
            }
            .st021 {
              fill: #ffffff;
            }
            .st002 {
              fill: #ffffff;
            }
          </style>
<title>Mailazy Logo</title>
<circle class="st0" cx="241.2" cy="85.7" r="5.3"></circle>
<g>
<path class="st001" d="M444.8,48v102H420V86.2L397.9,150h-21.5l-22.2-63.9V150h-24.8V48h30.4l27.7,71l27.2-71H444.8z"></path>
<path class="st001" d="M508.7,72.1c4.5,2.8,7.7,6.6,9.9,11.5V69h24.7v81h-24.7v-14.7c-2.1,4.8-5.4,8.7-9.9,11.5
          c-4.5,2.8-9.8,4.2-16,4.2c-6.7,0-12.7-1.7-17.9-5c-5.3-3.3-9.4-8.2-12.5-14.5c-3-6.3-4.6-13.7-4.6-22.1c0-8.5,1.5-15.9,4.6-22.1
          s7.2-11,12.5-14.4c5.3-3.3,11.3-5,17.9-5C498.9,67.9,504.3,69.3,508.7,72.1z M487.9,94.9c-3.2,3.5-4.9,8.3-4.9,14.5
          s1.6,11,4.9,14.5c3.2,3.5,7.5,5.2,12.9,5.2c5.2,0,9.5-1.8,12.9-5.4c3.3-3.6,5-8.4,5-14.4c0-6.1-1.7-10.9-5-14.5
          c-3.3-3.5-7.6-5.3-12.9-5.3C495.4,89.7,491.1,91.5,487.9,94.9z"></path>
<path class="st001" d="M562.2,36.8c2.7-2.5,6.3-3.7,10.7-3.7c4.5,0,8,1.2,10.7,3.7s4.1,5.6,4.1,9.4c0,3.7-1.4,6.8-4.1,9.2
          c-2.7,2.5-6.3,3.7-10.7,3.7c-4.5,0-8-1.2-10.7-3.7s-4.1-5.5-4.1-9.2C558.1,42.4,559.5,39.3,562.2,36.8z M585.3,69v81h-24.8V69
          H585.3z"></path>
<path class="st0" d="M627.2,42.5V150h-24.8V42.5H627.2z"></path>
<path class="st001" d="M691.1,72.1c4.5,2.8,7.7,6.6,9.9,11.5V69h24.7v81H701v-14.7c-2.1,4.8-5.4,8.7-9.9,11.5s-9.8,4.2-16,4.2
          c-6.7,0-12.7-1.7-17.9-5c-5.3-3.3-9.4-8.2-12.5-14.5c-3-6.3-4.6-13.7-4.6-22.1c0-8.5,1.5-15.9,4.6-22.1s7.2-11,12.5-14.4
          c5.3-3.3,11.3-5,17.9-5C681.4,67.9,686.7,69.3,691.1,72.1z M670.3,94.9c-3.2,3.5-4.9,8.3-4.9,14.5s1.6,11,4.9,14.5
          c3.2,3.5,7.5,5.2,12.9,5.2c5.2,0,9.5-1.8,12.9-5.4c3.3-3.6,5-8.4,5-14.4c0-6.1-1.7-10.9-5-14.5c-3.3-3.5-7.6-5.3-12.9-5.3
          C677.8,89.7,673.5,91.5,670.3,94.9z"></path>
<path class="st001" d="M764.8,129.2h37.5V150h-64.6v-19.6l34.9-40.8h-34.3V69h62.6v19.6L764.8,129.2z"></path>
<path class="st001" d="M832.7,69l19.5,49.7L870.4,69h27.5l-50.5,119.7H820l19-41.7l-34-78H832.7z"></path>
</g>
<g>
<path class="st001" d="M284.6,15.2c2.5-6.2,1.1-10.8-3.8-12.9s-9.5,0.3-11.9,6.3c-3.6,8.8-7.1,17.6-10.4,26.6
          c-1.2,3.3-2.8,4.6-6.4,4.6c-3.7,0-4.9-1.8-5.8-4.7c-2.9-9.2-5.9-18.5-8.9-27.6c-1.9-5.7-6.2-8.4-10.7-7c-5.1,1.6-7.3,6-5.5,11.9
          c2.8,9.3,5.7,18.5,8.8,27.7c1.1,3.3,1.1,5.4-2.3,7.4c-4.3,2.5-7.8,6-11.2,9.6c-10.7,11.3-17.7,24.9-24.6,38.7
          c-4.7,9.4-9.9,18.3-16.1,26.7c-5.5,7.5-11.8,14.4-19,20.6c-32.2,27.8-68.7,33.1-108.2,18.8C32,155.9,20.8,144,17.8,126
          c-0.3-1.9-0.5-3.8-0.6-5.7c-0.6-10.7,1.9-21,6.5-30.8c12.5-26.7,33.8-43.8,61.1-53.6c18.1-6.5,36.4-8.1,54.6,0
          c19.5,8.7,27.4,30.5,18.2,49.6c-3.1,6.4-6.8,12.3-11.1,17.8c-2.8,3.6-5.9,7.1-9.3,10.4c-4.9,4.8-10.2,9.2-17,11.4
          c-2.3,0.7-4.5,1.3-6.5-0.6c-1.9-1.8-1-3.9-0.5-5.9c1.2-4.5,3.2-8.6,5.6-12.5c1.7-2.9,3.4-5.9,4.5-9c0.8-2.1,1.4-4.3,1.6-6.6
          c2.7-22.5-18.9-39-39.5-30.4c-19.7,8.2-32.6,22.1-37.7,41.8c-0.7,2.6-1.2,5.2-1.6,8c-2.8,19,9.5,32.3,28.7,31.7
          c7.5-0.2,14.1-3.1,20-7.3c1.8-1.3,3.2-1.9,4.9,0.2c8.1,10,21.6,9.7,32.3,3.8c12.5-6.9,22.2-16.5,30.2-27.6
          c3.7-5.2,7.1-10.8,10.2-16.7c13.4-25.3,5-55.6-19.6-70.5c-16-9.7-33.3-11.3-51.5-9.3c-44.9,5.1-85.5,38.7-98,82.2
          c-6.6,22.9-3.6,44.4,12.6,62.9c0.6,0.7,1.3,1.4,1.9,2.1l0.1,0.1c1.3,1.2,2.6,2.4,4,3.6l0.1,0.1c14.2,11.7,38.1,19.7,65.7,21h3.5
          c7.1-0.1,14.3-0.3,21.4-0.7c7.5-0.4,15-0.9,22.5-1.7c32.1-3.5,62.7-11.5,90.6-28.2c22.7-13.6,41.6-31,52.5-55.7
          c7.8-17.6,9.5-35.1-4.3-51c-1.5-1.8-1.2-3.4-0.5-5.3C277.2,34.2,280.8,24.7,284.6,15.2z M107.8,88.8c-5.4,14.4-13.8,26.9-28,34.5
          c-2.2,1.2-4.7,1.3-7.2,1.4c-6.6-0.1-9.8-3.7-9.7-11c0.2-15.6,15.8-35,31-38.5C102.1,73.3,110.7,81.1,107.8,88.8z M266.5,79.4
          c-1.9,14.1-9.3,25.7-18.5,36.1c-20.4,23.2-46.9,36-76.1,44.2c-2.5,0.7-5.1,1.3-7.7,1.9c-0.4,0.1-1-0.1-1.5-0.2
          c-0.1-1.8,1.4-2.4,2.4-3.3c17.9-14.9,31.1-33.5,41.6-54.1c5.3-10.3,10.3-20.8,17.6-30c3.9-4.9,8-9.4,13.2-12.8
          c6.4-4.3,13.5-7.2,20.7-2.7C266,63.1,267.6,71.1,266.5,79.4z M241.2,80.4c-2.9,0-5.3,2.4-5.3,5.3s2.4,5.3,5.3,5.3s5.3-2.4,5.3-5.3
          S244.1,80.4,241.2,80.4z"></path>
<circle class="st001" cx="241.2" cy="85.7" r="5.3"></circle>
</g>
</svg>